<?xml version="1.0" encoding="UTF-8"?> <svg xmlns="http://www.w3.org/2000/svg" width="114" height="114" viewBox="0 0 114 114" fill="none"><g clip-path="url(#clip0_281_182)"><circle cx="57" cy="57" r="57" fill="#167540"></circle><path d="M68.8605 74.1284H63.6048C62.8602 74.1284 62.2365 73.8765 61.7337 73.3727C61.2309 72.869 60.9786 72.2462 60.9769 71.5045C60.9751 70.7629 61.2274 70.1401 61.7337 69.6364C62.24 69.1326 62.8637 68.8807 63.6048 68.8807H68.8605V63.633C68.8605 62.8895 69.1128 62.2668 69.6174 61.7648C70.1219 61.2627 70.7456 61.0109 71.4884 61.0091C72.2312 61.0074 72.8558 61.2592 73.3621 61.7648C73.8684 62.2703 74.1198 62.893 74.1163 63.633V68.8807H79.3721C80.1167 68.8807 80.7412 69.1326 81.2458 69.6364C81.7503 70.1401 82.0017 70.7629 82 71.5045C81.9982 72.2462 81.746 72.8698 81.2432 73.3754C80.7404 73.8809 80.1167 74.1319 79.3721 74.1284H74.1163V79.3761C74.1163 80.1196 73.864 80.7432 73.3595 81.2469C72.8549 81.7507 72.2312 82.0017 71.4884 82C70.7456 81.9982 70.1219 81.7464 69.6174 81.2443C69.1128 80.7423 68.8605 80.1196 68.8605 79.3761V74.1284ZM32.7927 78.6546C32.311 78.1735 32.0482 77.5832 32.0044 76.8835C31.9606 76.1838 32.2453 75.5278 32.8584 74.9156L74.9704 32.8682C75.6274 32.2122 76.3062 31.928 77.007 32.0154C77.7078 32.1029 78.299 32.3871 78.7808 32.8682C79.2626 33.3492 79.5254 33.9396 79.5692 34.6393C79.613 35.339 79.3064 35.995 78.6494 36.6072L36.4718 78.6546C35.8586 79.2668 35.213 79.5406 34.535 79.4758C33.857 79.4111 33.2763 79.1374 32.7927 78.6546ZM32.7927 58.4508C32.311 57.9698 32.0482 57.3794 32.0044 56.6797C31.9606 55.98 32.2453 55.3241 32.8584 54.7118L54.6699 32.9338C55.2831 32.3216 55.9296 32.0487 56.6093 32.1151C57.2891 32.1816 57.869 32.4545 58.349 32.9338C58.829 33.4131 59.1032 33.993 59.1715 34.6734C59.2398 35.3539 58.9657 35.9985 58.349 36.6072L36.4718 58.4508C35.8586 59.0631 35.213 59.336 34.535 59.2695C33.857 59.203 33.2763 58.9301 32.7927 58.4508ZM34.3038 40.4118C33.8658 40.8491 33.384 40.9584 32.8584 40.7398C32.3329 40.5211 32.0701 40.1057 32.0701 39.4934V34.7705C32.0701 34.0271 32.3224 33.4043 32.8269 32.9023C33.3315 32.4003 33.9552 32.1484 34.698 32.1466H39.4282C40.0413 32.1466 40.4574 32.409 40.6764 32.9338C40.8954 33.4586 40.7859 33.9396 40.3479 34.3769L34.3038 40.4118ZM76.7442 57.5325C75.9996 57.5325 75.3865 57.2806 74.9047 56.7768C74.4229 56.273 74.182 55.6503 74.182 54.9086C74.182 54.1669 74.4229 53.5547 74.9047 53.0719C75.3865 52.5891 75.9996 52.3486 76.7442 52.3504C77.4888 52.3521 78.1133 52.5926 78.6179 53.0719C79.1224 53.5512 79.3739 54.1634 79.3721 54.9086C79.3703 55.6538 79.1181 56.2774 78.6153 56.7794C78.1125 57.2815 77.4888 57.5325 76.7442 57.5325ZM54.9327 79.3761C54.1882 79.3761 53.575 79.1242 53.0932 78.6205C52.6114 78.1167 52.3705 77.4939 52.3705 76.7523C52.3705 76.0106 52.6114 75.3984 53.0932 74.9156C53.575 74.4328 54.1882 74.1923 54.9327 74.194C55.6773 74.1958 56.3019 74.4363 56.8064 74.9156C57.311 75.3949 57.5624 76.0071 57.5606 76.7523C57.5589 77.4974 57.3075 78.121 56.8064 78.6231C56.3054 79.1251 55.6808 79.3761 54.9327 79.3761Z" fill="white"></path></g><defs><clipPath id="clip0_281_182"><rect width="114" height="114" fill="white"></rect></clipPath></defs></svg> 