<?xml version="1.0" encoding="UTF-8"?> <svg xmlns="http://www.w3.org/2000/svg" width="84" height="84" viewBox="0 0 84 84" fill="none"><g clip-path="url(#clip0_281_194)"><circle cx="42" cy="42" r="42" fill="#167540"></circle><mask id="mask0_281_194" style="mask-type:alpha" maskUnits="userSpaceOnUse" x="23" y="24" width="38" height="35"><path d="M58.1169 29.4625C54.3155 24.4056 47.1345 23.3878 42.0775 27.1892L28.2496 37.584C23.1927 41.3854 22.1749 48.5665 25.9763 53.6234C29.7777 58.6803 36.9588 59.6981 42.0157 55.8967L55.8437 45.5019C60.9006 41.7005 61.9184 34.5194 58.1169 29.4625Z" fill="white"></path></mask><g mask="url(#mask0_281_194)"><path d="M50.1077 16.4731L32.1687 29.9583L52.1155 56.493L70.0545 43.0078L50.1077 16.4731Z" fill="white"></path></g><circle cx="37.5" cy="46.5" r="3.5" fill="white"></circle><circle cx="31.5" cy="61.5" r="2.5" fill="white"></circle><circle cx="30" cy="49" r="3" fill="white"></circle><circle cx="26.5" cy="55.5" r="2.5" fill="white"></circle><circle cx="35.5" cy="55.5" r="3.5" fill="white"></circle></g><defs><clipPath id="clip0_281_194"><rect width="84" height="84" fill="white"></rect></clipPath></defs></svg> 