<?xml version="1.0" encoding="UTF-8"?> <svg xmlns="http://www.w3.org/2000/svg" width="114" height="114" viewBox="0 0 114 114" fill="none"><g clip-path="url(#clip0_281_146)"><circle cx="57" cy="57" r="57" fill="#167540"></circle><path fill-rule="evenodd" clip-rule="evenodd" d="M47.0288 27.7253C47.501 28.265 47.6556 29.003 47.4381 29.6796C46.5032 32.5892 47.2675 35.1432 48.4643 37.976C48.6189 38.3421 48.7864 38.725 48.9584 39.1182C49.4161 40.1643 49.9056 41.2832 50.2697 42.352C50.7881 43.8737 51.1589 45.5644 50.9319 47.363C50.1063 53.9023 44.1595 58.711 37.5037 57.9135C30.8497 57.1162 26.2704 51.0508 27.0961 44.51L27.0963 44.5087C27.7951 39.0008 32.2347 28.8368 45.1123 27.0213C45.8329 26.9197 46.5566 27.1855 47.0288 27.7253ZM31.3021 45.0147C30.7442 49.4396 33.838 53.3163 38.0212 53.8176C42.2029 54.3186 46.1669 51.2864 46.7257 46.8595C46.8447 45.9165 46.6696 44.8904 46.2475 43.6515C45.9416 42.7538 45.5596 41.881 45.1312 40.9018C44.9439 40.4739 44.7477 40.0256 44.5451 39.5461C43.6086 37.3291 42.6607 34.7147 42.7961 31.7377C34.7262 34.1461 31.8068 41.0378 31.3022 45.0144" fill="white"></path><path fill-rule="evenodd" clip-rule="evenodd" d="M38.6674 43.0137C39.802 43.1454 40.6172 44.1912 40.4883 45.3497C39.5254 54 40.324 65.2653 45.4927 78.0847C45.9274 79.1629 45.4238 80.3967 44.3679 80.8405C43.312 81.2843 42.1036 80.7701 41.6689 79.692C36.2241 66.1878 35.341 54.2032 36.3796 44.8729C36.5085 43.7144 37.5328 42.882 38.6674 43.0137ZM68.9022 45.8189C74.6455 45.7048 80.9528 47.776 86.4671 54.0127C86.9119 54.5158 87.0931 55.2063 86.9542 55.869C86.8154 56.5317 86.3733 57.0861 85.7659 57.3593C81.6713 59.2009 79.3115 62.7822 77.0858 66.9121C76.7872 67.4663 76.4861 68.0398 76.1813 68.6203C75.3951 70.1177 74.5842 71.662 73.7265 73.0444C72.5157 74.9959 71.0694 76.875 69.1283 78.2201C61.809 83.2923 52.5447 81.2676 48.6745 73.3283C48.6623 73.3051 48.6504 73.2815 48.6389 73.2576C44.909 65.5015 47.8842 55.3263 55.0786 50.3424C58.2381 48.1525 63.2472 45.9312 68.9022 45.8189ZM52.3211 71.3347C52.3312 71.3541 52.341 71.3737 52.3506 71.3936C54.9802 76.8594 61.3289 78.5222 66.8061 74.7266C68.0699 73.8508 69.1535 72.5252 70.2333 70.7849C71.0059 69.5398 71.7049 68.2082 72.4605 66.7688C72.7812 66.1581 73.112 65.5279 73.4629 64.8767C75.3445 61.3852 77.673 57.5419 81.5221 54.9339C77.3763 51.1621 72.9792 49.9609 68.9826 50.0402C64.2888 50.1334 60.0448 52.0033 57.4012 53.8357L57.4007 53.836C51.7913 57.7216 49.618 65.6242 52.3211 71.3347Z" fill="white"></path><path fill-rule="evenodd" clip-rule="evenodd" d="M64.7571 61.1022C65.3024 62.1069 64.8987 63.347 63.8554 63.8721C56.4442 67.6022 48.5357 74.0961 41.9752 84.9777C41.3842 85.958 40.0797 86.2914 39.0617 85.7222C38.0436 85.153 37.6974 83.8969 38.2885 82.9165C45.2447 71.3785 53.7404 64.331 61.8807 60.2339C62.924 59.7088 64.2118 60.0976 64.7571 61.1022Z" fill="white"></path><path d="M83 54.0188C69.1738 53.5291 55.9058 62.7465 51 67.4164C51.9722 82.7048 61.8467 79.6353 66.6624 76.1895C77.8692 69.0033 83 54.0188 83 54.0188Z" fill="white"></path><path d="M44.3242 31.5686C41.0063 35.9282 40.5279 48.3393 40.7034 54C38.9918 54 34.9233 53.5438 32.3427 51.7188C29.7621 49.8939 31.4869 40.7355 32.6719 36.3844C37.9385 32.9626 47.6422 27.2091 44.3242 31.5686Z" fill="white"></path></g><defs><clipPath id="clip0_281_146"><rect width="114" height="114" fill="white"></rect></clipPath></defs></svg> 