<?xml version="1.0" encoding="UTF-8"?> <svg xmlns="http://www.w3.org/2000/svg" width="84" height="84" viewBox="0 0 84 84" fill="none"><g clip-path="url(#clip0_281_153)"><circle cx="42" cy="42" r="42" fill="#167540"></circle><path fill-rule="evenodd" clip-rule="evenodd" d="M21.817 19.2068C22.5864 18.7697 23.5595 19.0482 23.9903 19.8288C25.4031 22.3889 26.9111 24.607 28.4706 26.5254C31.4663 22.2714 37.2208 21.4335 41.8162 24.4904L41.8172 24.4911C43.1623 25.3874 44.1599 26.6364 44.9872 27.9182C45.5717 28.8237 46.1265 29.8393 46.6589 30.8138C46.864 31.1893 47.0657 31.5586 47.2646 31.9132C48.761 34.5817 50.3236 36.85 53.0287 38.0184C53.5079 38.2254 53.8575 38.6565 53.9654 39.1734C54.0732 39.6904 53.9258 40.2282 53.5704 40.6144C49.7983 44.7135 45.4854 46.0715 41.5683 45.9971C37.7134 45.9239 34.2982 44.4702 32.1381 43.0318L32.138 43.0317C27.7943 40.1386 25.6535 34.5632 26.9716 29.7319C24.9418 27.4075 22.9943 24.6561 21.2038 21.4116C20.773 20.631 21.0475 19.6438 21.817 19.2068ZM29.7848 32.644C29.7786 35.5279 31.2455 38.5615 33.8905 40.3232C35.652 41.4962 38.4898 42.6982 41.6281 42.7578C44.2106 42.8068 47.0359 42.0874 49.7169 39.8549C47.2441 38.1402 45.7185 35.7081 44.4889 33.5154C44.2478 33.0855 44.0221 32.6722 43.8042 32.2734C43.2965 31.3438 42.8317 30.4928 42.3155 29.6931C41.5958 28.578 40.8845 27.746 40.0645 27.1995C36.5101 24.8354 32.4636 25.8199 30.6862 29.0227C33.1905 31.6041 35.7713 33.498 38.2608 34.8663C39.0361 35.2925 39.3242 36.2757 38.9041 37.0623C38.484 37.8489 37.5149 38.1412 36.7395 37.715C34.4289 36.445 32.0778 34.7837 29.7848 32.644Z" fill="white"></path><path fill-rule="evenodd" clip-rule="evenodd" d="M26.0712 38.6593C26.5993 39.3784 26.4445 40.3894 25.7254 40.9175C24.5374 41.7899 24.2308 42.5201 24.2308 43.0013C24.2308 43.4026 24.4383 43.9709 25.2198 44.6746C26.0009 45.3778 27.222 46.0852 28.8684 46.7123C32.1502 47.9623 36.7926 48.7693 42 48.7693C47.2074 48.7693 51.8498 47.9623 55.1316 46.7123C56.778 46.0852 57.9991 45.3778 58.7802 44.6746C59.5617 43.9709 59.7692 43.4026 59.7692 43.0013C59.7692 42.5208 59.4635 41.7924 58.2733 40.9165C57.5547 40.3877 57.4009 39.3765 57.9297 38.658C58.4585 37.9395 59.4697 37.7857 60.1883 38.3145C61.755 39.4674 63 41.0394 63 43.0013C63 44.6386 62.1225 46.0125 60.942 47.0755C59.7611 48.1388 58.1431 49.0224 56.2815 49.7315C52.5471 51.1539 47.4972 52 42 52C36.5028 52 31.4529 51.1539 27.7185 49.7315C25.8569 49.0224 24.2389 48.1388 23.058 47.0755C21.8775 46.0125 21 44.6386 21 43.0013C21 41.0401 22.2441 39.4657 23.8131 38.3135C24.5321 37.7854 25.5432 37.9403 26.0712 38.6593Z" fill="white"></path><path fill-rule="evenodd" clip-rule="evenodd" d="M22.6154 42C23.5075 42 24.2308 42.7036 24.2308 43.5714C24.2308 50.3392 29.1534 56.4891 34.711 60.0285L34.7121 60.0292C35.5883 60.5883 36.6836 60.8571 37.8711 60.8571H46.1289C47.3164 60.8571 48.4117 60.5883 49.2879 60.0292L49.289 60.0285C54.8466 56.4891 59.7692 50.3392 59.7692 43.5714C59.7692 42.7036 60.4925 42 61.3846 42C62.2768 42 63 42.7036 63 43.5714C63 51.793 57.1276 58.7928 51.0587 62.658C49.5444 63.6237 47.797 64 46.1289 64H37.8711C36.2028 64 34.4552 63.6236 32.9408 62.6576C26.8721 58.7924 21 51.7927 21 43.5714C21 42.7036 21.7232 42 22.6154 42Z" fill="white"></path><path d="M24.0733 46C37.6132 55.3128 53.9139 49.5146 60 46C59.6923 52.7081 54.5072 65.6639 40.2288 63.8227C25.9504 61.9816 23.5092 51.1738 24.0733 46Z" fill="white"></path></g><defs><clipPath id="clip0_281_153"><rect width="84" height="84" fill="white"></rect></clipPath></defs></svg> 