<?xml version="1.0" encoding="UTF-8"?> <svg xmlns="http://www.w3.org/2000/svg" width="84" height="84" viewBox="0 0 84 84" fill="none"><g clip-path="url(#clip0_281_192)"><circle cx="42" cy="42" r="42" fill="#167540"></circle><mask id="mask0_281_192" style="mask-type:luminance" maskUnits="userSpaceOnUse" x="21" y="21" width="43" height="41"><path fill-rule="evenodd" clip-rule="evenodd" d="M42.5513 58.8459H48.3421C48.4225 56.4687 48.8128 55.1617 49.5129 54.9249C56.8159 52.4498 62 46.1961 62 38.8716H23.1025C23.1025 46.0372 28.0649 52.1788 35.1189 54.759C35.856 55.0288 36.4068 56.3911 36.7711 58.8459H42.5513Z" fill="white"></path><path fill-rule="evenodd" clip-rule="evenodd" d="M21 37.6646C21 36.5894 21.8558 35.7178 22.9114 35.7178H61.1399C62.1955 35.7178 63.0513 36.5894 63.0513 37.6646C63.0513 46.5637 57.6232 54.1644 49.9509 57.3167C49.9384 57.3566 49.9249 57.4033 49.9107 57.4575C49.7749 57.9761 49.6653 58.8347 49.6275 60.1118C49.5963 61.1636 48.7501 61.9998 47.7169 61.9998H36.3449C35.3863 61.9998 34.576 61.2767 34.45 60.3088C34.2783 58.9887 34.0753 58.0774 33.8726 57.5053C33.8161 57.3459 33.767 57.2343 33.73 57.1603C26.2546 53.9188 21 46.4193 21 37.6646ZM33.6624 57.0428C33.6624 57.0427 33.6634 57.0439 33.6653 57.0466C33.6634 57.0442 33.6624 57.0428 33.6624 57.0428ZM24.9304 39.6114C25.6375 45.971 29.7677 51.302 35.4456 53.6706L35.446 53.6707C36.0743 53.933 36.5056 54.3923 36.7926 54.8071C37.0823 55.2259 37.2986 55.7044 37.4682 56.1831C37.6645 56.7368 37.83 57.3824 37.9707 58.1062H45.9289C45.9958 57.4942 46.0898 56.94 46.2169 56.4542C46.341 55.9804 46.5184 55.4851 46.7919 55.0434C47.0677 54.598 47.5106 54.0997 48.1906 53.8374C54.0811 51.5601 58.3967 46.1256 59.1209 39.6114H24.9304Z" fill="white"></path><path fill-rule="evenodd" clip-rule="evenodd" d="M32.8936 43.1577C33.9214 42.8596 35.0075 43.4145 35.3193 44.3972C35.6182 45.3393 35.9872 46.0353 36.3868 46.5377C36.8791 47.142 37.4532 47.6811 38.0941 48.1408C38.9532 48.7571 39.1271 49.9226 38.4824 50.7439C37.8378 51.5653 36.6187 51.7315 35.7596 51.1152C34.8397 50.4553 34.016 49.6811 33.3102 48.813L33.305 48.8066L33.2999 48.8002C32.5514 47.8627 31.9971 46.7371 31.5971 45.4767C31.2853 44.4941 31.8657 43.4558 32.8936 43.1577Z" fill="black"></path><path fill-rule="evenodd" clip-rule="evenodd" d="M52.0739 24.864C51.7724 24.9732 51.4244 25.2365 51.1488 25.8641L51.1473 25.8676L51.1457 25.8712C49.2228 30.2045 47.2906 34.5331 45.3493 38.8567C44.927 39.7973 43.8801 40.1893 43.011 39.7322C42.1419 39.2752 41.7797 38.1422 42.202 37.2017C44.1405 32.8843 46.0698 28.5621 47.9899 24.2351C48.6331 22.7725 49.6753 21.7393 50.9637 21.2728C52.2291 20.8146 53.5696 20.9605 54.7571 21.5098C57.3909 22.7283 58.5002 26.1748 57.3316 28.7425L57.3314 28.743C56.8883 29.7159 55.3781 33.0763 52.796 38.835C52.3741 39.7758 51.3274 40.1684 50.4581 39.7119C49.5888 39.2553 49.226 38.1226 49.6478 37.1818C52.2266 31.4305 53.7431 28.0562 54.1926 27.0693C54.1926 27.0691 54.1927 27.0689 54.1928 27.0688C54.4672 26.4648 54.1856 25.3638 53.3817 24.9919C52.8501 24.746 52.3995 24.7461 52.0739 24.864Z" fill="white"></path></mask><g mask="url(#mask0_281_192)"><path d="M19.9487 18.8975H65.1539V65.1539H19.9487V18.8975Z" fill="white"></path></g></g><defs><clipPath id="clip0_281_192"><rect width="84" height="84" fill="white"></rect></clipPath></defs></svg> 