<?xml version="1.0" encoding="UTF-8"?> <svg xmlns="http://www.w3.org/2000/svg" width="114" height="114" viewBox="0 0 114 114" fill="none"><g clip-path="url(#clip0_281_175)"><circle cx="57" cy="57" r="57" fill="#167540"></circle><path d="M59.8521 73.2995C60.3844 72.8768 60.627 72.6811 60.58 72.7125C62.1141 71.4445 63.3194 70.4036 64.196 69.5896C65.0882 68.7756 65.8396 67.9225 66.4501 67.0302C67.0606 66.138 67.3658 65.2692 67.3658 64.4239C67.3658 63.7821 67.2171 63.2812 66.9197 62.9212C66.6223 62.5612 66.1761 62.3812 65.5813 62.3812C64.9865 62.3812 64.5169 62.6081 64.1725 63.0621C63.8438 63.5004 63.6794 64.1265 63.6794 64.9405H59.8052C59.8365 63.61 60.1182 62.4986 60.6505 61.6063C61.1983 60.7141 61.9106 60.0566 62.7872 59.634C63.6794 59.2113 64.6656 59 65.7457 59C67.6084 59 69.0094 59.4774 69.9486 60.4323C70.9035 61.3872 71.3809 62.6316 71.3809 64.1656C71.3809 65.8406 70.8096 67.3981 69.6669 68.8382C68.5242 70.2627 67.0684 71.6558 65.2995 73.0177H71.6392V76.2814H59.8521V73.2995Z" fill="#167540"></path><path d="M53.3409 73.6048H47.1891L46.203 76.5163H42L47.964 60.0332H52.6131L58.577 76.5163H54.3271L53.3409 73.6048ZM52.3078 70.5054L50.265 64.471L48.2457 70.5054H52.3078Z" fill="#167540"></path><path fill-rule="evenodd" clip-rule="evenodd" d="M56.8227 56.9659L51.4716 49.5C51.4074 49.5465 51.3438 49.5938 51.2809 49.6419C50.5349 50.2118 49.8816 50.8926 49.3427 51.6596C49.1618 51.9172 48.9937 52.1845 48.8394 52.4606C48.1869 53.6283 47.7958 54.9249 47.6936 56.2601C47.5914 57.5953 47.7804 58.9368 48.2475 60.191C48.7147 61.4452 49.4486 62.5818 50.3981 63.5214C51.3476 64.4611 52.4898 65.1811 53.7448 65.6313C54.9999 66.0814 56.3377 66.2508 57.6646 66.1277C58.9916 66.0045 60.2759 65.5918 61.4277 64.9183C61.6959 64.7614 61.9555 64.5913 62.2055 64.4087C63.0289 63.8073 63.7486 63.0709 64.3333 62.2282L56.8227 56.9659ZM59.5171 62.5251C58.8529 62.846 58.1345 63.0466 57.3952 63.1153C56.4925 63.199 55.5831 63.0836 54.7311 62.778C53.8791 62.4725 53.107 61.9848 52.4673 61.3518C51.8278 60.7189 51.3361 59.9561 51.024 59.118C50.7119 58.28 50.586 57.3852 50.6541 56.4953C50.7123 55.7357 50.9108 54.9934 51.2394 54.306L55 58.5L59.5171 62.5251Z" fill="white"></path><path fill-rule="evenodd" clip-rule="evenodd" d="M78.6667 62.2097C79.9791 62.2097 81.0431 61.1458 81.0431 59.8333C81.0431 58.5209 79.9791 57.457 78.6667 57.457C77.3543 57.457 76.2904 58.5209 76.2904 59.8333C76.2904 61.1458 77.3543 62.2097 78.6667 62.2097ZM78.6667 64.1667C81.0599 64.1667 83 62.2266 83 59.8333C83 57.4401 81.0599 55.5 78.6667 55.5C76.2735 55.5 74.3334 57.4401 74.3334 59.8333C74.3334 62.2266 76.2735 64.1667 78.6667 64.1667Z" fill="white"></path><path fill-rule="evenodd" clip-rule="evenodd" d="M57.6667 40.1665V50.1665H55.6667V40.1665H57.6667Z" fill="white"></path><path fill-rule="evenodd" clip-rule="evenodd" d="M75.7877 60.1665L64.3334 58.2504L64.8791 56.1665L76.3334 58.0826L75.7877 60.1665Z" fill="white"></path><path fill-rule="evenodd" clip-rule="evenodd" d="M63.5813 76.1663L59 65.8072L61.0853 64.833L65.6667 75.1921L63.5813 76.1663Z" fill="white"></path><path fill-rule="evenodd" clip-rule="evenodd" d="M38.3334 64.4095L49.4931 60.833L50.3334 63.2565L39.1736 66.833L38.3334 64.4095Z" fill="white"></path><path fill-rule="evenodd" clip-rule="evenodd" d="M31.753 32.2394C32.7531 31.2497 34.3701 31.2541 35.3647 32.2493L81.5903 78.5001C82.5849 79.4953 82.5804 81.1043 81.5803 82.094C80.5802 83.0837 78.9632 83.0792 77.9686 82.0841L31.7431 35.8332C30.7484 34.8381 30.7529 33.2291 31.753 32.2394Z" fill="white"></path><path fill-rule="evenodd" clip-rule="evenodd" d="M61.2588 51.9026C59.1757 50.3612 57.2565 50.4446 56.3459 50.7247C55.528 50.9762 54.6586 50.5253 54.4039 49.7175C54.1493 48.9097 54.6058 48.051 55.4237 47.7994C57.2399 47.2409 60.202 47.2924 63.1187 49.4507C64.6651 50.595 65.7227 52.2696 66.331 53.8389C66.9178 55.3524 67.206 57.0846 66.8329 58.3849C66.5994 59.1989 65.742 59.6717 64.9179 59.4411C64.0937 59.2104 63.615 58.3636 63.8485 57.5496C63.9566 57.1726 63.9188 56.1844 63.4342 54.9344C62.9712 53.7402 62.2122 52.6081 61.2588 51.9026Z" fill="white"></path><path d="M63 36.4998C63 39.9976 60.1645 42.8332 56.6667 42.8332C53.1689 42.8332 50.3334 39.9976 50.3334 36.4998C50.3334 33.002 53.1689 30.1665 56.6667 30.1665C60.1645 30.1665 63 33.002 63 36.4998Z" fill="white"></path><path d="M41.6667 67.1663C41.6667 69.5596 39.7266 71.4997 37.3333 71.4997C34.9401 71.4997 33 69.5596 33 67.1663C33 64.7731 34.9401 62.833 37.3333 62.833C39.7266 62.833 41.6667 64.7731 41.6667 67.1663Z" fill="white"></path><path d="M69.6666 77.833C69.6666 80.5944 67.4281 82.833 64.6666 82.833C61.9052 82.833 59.6666 80.5944 59.6666 77.833C59.6666 75.0716 61.9052 72.833 64.6666 72.833C67.4281 72.833 69.6666 75.0716 69.6666 77.833Z" fill="white"></path></g><defs><clipPath id="clip0_281_175"><rect width="114" height="114" fill="white"></rect></clipPath></defs></svg> 